<svg width="147" height="47" viewBox="0 0 147 47" fill="none" xmlns="http://www.w3.org/2000/svg">
<g clip-path="url(#clip0_2_21162)">
<path d="M36.3904 15.3326H39.2656L43.4059 8.60462H48.8688L43.1375 17.5177L50.0571 27.0058H44.2684L39.1123 19.5878H36.3904V27.0058H31.4835V0.017395H36.3904V15.3326Z" fill="black"/>
<path d="M58.5633 8.22107C64.2178 8.22107 68.3964 12.3805 68.3964 17.8051C68.3964 23.2487 64.2178 27.389 58.5633 27.389C52.9279 27.389 48.7301 23.2487 48.7301 17.8051C48.7301 12.3805 52.9279 8.22107 58.5633 8.22107ZM58.5633 22.942C61.4577 22.942 63.5085 20.7569 63.5085 17.8051C63.5085 14.8723 61.4577 12.6872 58.5633 12.6872C55.6881 12.6872 53.6179 14.8723 53.6179 17.8051C53.6179 20.7569 55.6881 22.942 58.5633 22.942Z" fill="black"/>
<path d="M75.3707 27.0058H70.4637V0.017395H75.3707V27.0058Z" fill="black"/>
<path d="M86.1058 8.22119C83.4523 8.22119 80.9208 8.8794 79.4548 9.56516V13.9906C80.7772 13.2429 83.2693 12.5532 85.4742 12.5532C88.3491 12.5532 89.8633 13.5115 89.8633 15.8688V16.6136C88.6785 16.318 87.4617 16.17 86.2406 16.1729C81.276 16.1729 77.9603 18.1121 77.9603 21.9266C77.9603 25.3573 80.5666 27.389 84.1125 27.389C86.6233 27.389 88.8666 26.1818 89.9784 24.5712L89.9538 27.0053H94.7698V15.4861C94.7698 10.5599 91.6844 8.22119 86.1058 8.22119ZM89.7668 20.373C89.7668 22.5061 87.6781 23.67 85.6464 23.67C83.959 23.67 82.8089 22.9419 82.8089 21.4661C82.8089 19.8939 84.3998 19.1658 86.5663 19.1658C87.6477 19.1544 88.7253 19.2965 89.7668 19.5879V20.373Z" fill="black"/>
<path d="M103.107 25.0524L103.011 27.0076H98.1996V0H103.03V10.8299C104.237 9.29644 106.135 8.22303 109.087 8.22303C114.301 8.22303 118 12.1908 118 17.7878C118 23.3465 114.301 27.391 109.087 27.391C106.384 27.391 104.295 26.4517 103.107 25.0524ZM108.09 22.9824C111.004 22.9824 113.074 20.6821 113.074 17.7686C113.074 14.7976 111.023 12.6316 108.09 12.6316C105.196 12.6316 103.087 14.836 103.087 17.7686C103.087 20.6821 105.177 22.9824 108.09 22.9824Z" fill="black"/>
<path d="M22.4314 2.32194C21.7014 1.58981 20.8338 1.00923 19.8786 0.613614C18.9234 0.217997 17.8995 0.0151465 16.8656 0.0167329H7.871C5.78348 0.0167329 3.78146 0.845996 2.30536 2.32209C0.829263 3.79819 0 5.80021 0 7.88773C0 9.97525 0.829263 11.9773 2.30536 13.4534C3.78146 14.9295 5.78348 15.7587 7.871 15.7587H8.99458V16.8833C8.99458 18.9708 9.82384 20.9728 11.2999 22.4489C12.776 23.925 14.7781 24.7543 16.8656 24.7543C18.9531 24.7543 20.9551 23.925 22.4312 22.4489C23.9073 20.9728 24.7366 18.9708 24.7366 16.8833V7.88773C24.738 6.85388 24.535 5.82995 24.1394 4.87478C23.7438 3.91962 23.1633 3.05205 22.4314 2.32194ZM8.99458 7.88773V13.1515H7.871C6.47497 13.1515 5.13612 12.5969 4.14898 11.6097C3.16184 10.6226 2.60727 9.28376 2.60727 7.88773C2.60727 6.4917 3.16184 5.15285 4.14898 4.16571C5.13612 3.17857 6.47497 2.624 7.871 2.624H11.0155C9.7125 4.06733 8.99227 5.94328 8.99458 7.88773ZM13.3541 3.97094L20.7824 11.3992C20.2899 11.9487 19.6876 12.3888 19.0144 12.691L12.0623 5.73896C12.3649 5.06596 12.8049 4.46371 13.3541 3.97094ZM11.6018 8.96607L15.7882 13.1515H11.6018V8.96607ZM22.1293 16.8833C22.1293 18.2793 21.5747 19.6182 20.5876 20.6053C19.6005 21.5924 18.2616 22.147 16.8656 22.147C15.4695 22.147 14.1307 21.5924 13.1436 20.6053C12.1564 19.6182 11.6018 18.2793 11.6018 16.8833V15.7587H16.8656C18.8099 15.7616 20.686 15.0417 22.1293 13.7388V16.8833ZM22.0221 8.9513L15.802 2.73223C16.5723 2.57353 17.3684 2.58953 18.1317 2.77904C18.895 2.96854 19.6061 3.32675 20.2127 3.8273C20.3426 3.93452 20.4672 4.048 20.5866 4.16772C20.6456 4.22673 20.7037 4.28775 20.7607 4.34972C21.318 4.96354 21.7226 5.70012 21.9417 6.49965C22.1609 7.29919 22.1884 8.13914 22.0221 8.9513Z" fill="black"/>
<path d="M15.7882 13.1515H11.6018V8.96613L15.7882 13.1515Z" fill="#FFC520"/>
<path d="M20.7824 11.3991C20.2899 11.9487 19.6876 12.3887 19.0144 12.691L12.0623 5.73891C12.3649 5.0659 12.8049 4.46365 13.3541 3.97089L20.7824 11.3991Z" fill="#FFC520"/>
<path d="M22.1293 7.8877C22.1297 8.24494 22.0938 8.6013 22.0221 8.95127L15.802 2.7322C16.5723 2.5735 17.3684 2.5895 18.1317 2.779C18.895 2.96851 19.6061 3.32671 20.2127 3.82726C20.3426 3.93449 20.4672 4.04796 20.5866 4.16768C20.6456 4.2267 20.7037 4.28772 20.7607 4.34969C21.6423 5.31701 22.1304 6.57893 22.1293 7.8877Z" fill="#FFC520"/>
<path d="M11.0154 2.62439C9.71241 4.06772 8.99219 5.94367 8.99449 7.88812V13.1518H7.87091C6.47488 13.1518 5.13603 12.5973 4.14889 11.6101C3.16175 10.623 2.60718 9.28415 2.60718 7.88812C2.60718 6.49209 3.16175 5.15324 4.14889 4.1661C5.13603 3.17896 6.47488 2.62439 7.87091 2.62439H11.0154Z" fill="white"/>
<path d="M22.1291 13.7392V16.8837C22.1291 18.2797 21.5746 19.6185 20.5874 20.6057C19.6003 21.5928 18.2614 22.1474 16.8654 22.1474C15.4694 22.1474 14.1305 21.5928 13.1434 20.6057C12.1563 19.6185 11.6017 18.2797 11.6017 16.8837V15.7591H16.8654C18.8098 15.7619 20.6858 15.042 22.1291 13.7392Z" fill="white"/>
</g>
<path d="M83.0139 44.66C82.8539 44.7933 82.5539 44.9733 82.1139 45.2C81.6872 45.4267 81.1606 45.6267 80.5339 45.8C79.9072 45.9733 79.2139 46.0533 78.4539 46.04C77.2939 46.0133 76.2539 45.8067 75.3339 45.42C74.4272 45.02 73.6539 44.48 73.0139 43.8C72.3872 43.12 71.9072 42.34 71.5739 41.46C71.2406 40.58 71.0739 39.64 71.0739 38.64C71.0739 37.52 71.2406 36.4933 71.5739 35.56C71.9206 34.6267 72.4072 33.82 73.0339 33.14C73.6739 32.46 74.4339 31.9333 75.3139 31.56C76.1939 31.1867 77.1672 31 78.2339 31C79.2206 31 80.0939 31.1333 80.8539 31.4C81.6139 31.6667 82.2339 31.9533 82.7139 32.26L81.5739 35C81.2406 34.7467 80.7939 34.4867 80.2339 34.22C79.6872 33.94 79.0539 33.8 78.3339 33.8C77.7739 33.8 77.2339 33.92 76.7139 34.16C76.2072 34.3867 75.7539 34.7133 75.3539 35.14C74.9672 35.5667 74.6606 36.0667 74.4339 36.64C74.2072 37.2 74.0939 37.8133 74.0939 38.48C74.0939 39.1867 74.1939 39.8333 74.3939 40.42C74.6072 41.0067 74.9072 41.5133 75.2939 41.94C75.6806 42.3533 76.1406 42.6733 76.6739 42.9C77.2206 43.1267 77.8339 43.24 78.5139 43.24C79.3006 43.24 79.9739 43.1133 80.5339 42.86C81.0939 42.6067 81.5206 42.34 81.8139 42.06L83.0139 44.66Z" fill="black"/>
<path d="M84.7792 41.4C84.7792 40.5067 84.9859 39.7067 85.3992 39C85.8259 38.2933 86.4192 37.74 87.1792 37.34C87.9392 36.9267 88.8126 36.72 89.7992 36.72C90.7992 36.72 91.6659 36.9267 92.3992 37.34C93.1326 37.74 93.6926 38.2933 94.0792 39C94.4792 39.7067 94.6792 40.5067 94.6792 41.4C94.6792 42.2933 94.4792 43.1 94.0792 43.82C93.6926 44.5267 93.1326 45.0867 92.3992 45.5C91.6659 45.9133 90.7859 46.12 89.7592 46.12C88.7992 46.12 87.9392 45.9333 87.1792 45.56C86.4326 45.1867 85.8459 44.6467 85.4192 43.94C84.9926 43.2333 84.7792 42.3867 84.7792 41.4ZM87.5992 41.42C87.5992 41.8733 87.6926 42.2867 87.8792 42.66C88.0659 43.02 88.3192 43.3067 88.6392 43.52C88.9592 43.7333 89.3192 43.84 89.7192 43.84C90.1592 43.84 90.5392 43.7333 90.8592 43.52C91.1792 43.3067 91.4259 43.02 91.5992 42.66C91.7726 42.2867 91.8592 41.8733 91.8592 41.42C91.8592 40.9533 91.7726 40.54 91.5992 40.18C91.4259 39.82 91.1792 39.5333 90.8592 39.32C90.5392 39.1067 90.1592 39 89.7192 39C89.3192 39 88.9592 39.1067 88.6392 39.32C88.3192 39.5333 88.0659 39.82 87.8792 40.18C87.6926 40.54 87.5992 40.9533 87.5992 41.42Z" fill="black"/>
<path d="M99.425 37.14L99.645 38.7L99.605 38.56C99.9117 38.0133 100.345 37.5733 100.905 37.24C101.465 36.8933 102.152 36.72 102.965 36.72C103.792 36.72 104.478 36.9667 105.025 37.46C105.585 37.94 105.872 38.5667 105.885 39.34V45.88H103.085V40.38C103.072 39.9933 102.965 39.6867 102.765 39.46C102.578 39.22 102.258 39.1 101.805 39.1C101.378 39.1 101.005 39.24 100.685 39.52C100.365 39.8 100.118 40.18 99.945 40.66C99.7717 41.14 99.685 41.6933 99.685 42.32V45.88H96.885V37.14H99.425Z" fill="black"/>
<path d="M111.3 37.14L111.52 38.7L111.48 38.56C111.787 38.0133 112.22 37.5733 112.78 37.24C113.34 36.8933 114.027 36.72 114.84 36.72C115.667 36.72 116.353 36.9667 116.9 37.46C117.46 37.94 117.747 38.5667 117.76 39.34V45.88H114.96V40.38C114.947 39.9933 114.84 39.6867 114.64 39.46C114.453 39.22 114.133 39.1 113.68 39.1C113.253 39.1 112.88 39.24 112.56 39.52C112.24 39.8 111.993 40.18 111.82 40.66C111.647 41.14 111.56 41.6933 111.56 42.32V45.88H108.76V37.14H111.3Z" fill="black"/>
<path d="M124.935 46.12C123.868 46.12 122.962 45.92 122.215 45.52C121.482 45.12 120.922 44.5667 120.535 43.86C120.148 43.1533 119.955 42.34 119.955 41.42C119.955 40.54 120.182 39.7467 120.635 39.04C121.088 38.3333 121.695 37.7733 122.455 37.36C123.215 36.9333 124.062 36.72 124.995 36.72C126.248 36.72 127.275 37.0867 128.075 37.82C128.888 38.54 129.415 39.5867 129.655 40.96L122.855 43.12L122.235 41.6L127.155 39.94L126.575 40.2C126.468 39.8533 126.275 39.5533 125.995 39.3C125.728 39.0333 125.322 38.9 124.775 38.9C124.362 38.9 123.995 39 123.675 39.2C123.368 39.3867 123.128 39.66 122.955 40.02C122.795 40.3667 122.715 40.78 122.715 41.26C122.715 41.8067 122.815 42.2667 123.015 42.64C123.215 43 123.488 43.2733 123.835 43.46C124.182 43.6467 124.568 43.74 124.995 43.74C125.302 43.74 125.595 43.6867 125.875 43.58C126.168 43.4733 126.455 43.3333 126.735 43.16L127.975 45.24C127.508 45.5067 127.002 45.72 126.455 45.88C125.922 46.04 125.415 46.12 124.935 46.12Z" fill="black"/>
<path d="M139.11 45.1C138.723 45.4067 138.236 45.6533 137.65 45.84C137.076 46.0267 136.51 46.12 135.95 46.12C134.95 46.12 134.076 45.94 133.33 45.58C132.596 45.2067 132.023 44.68 131.61 44C131.21 43.3067 131.01 42.4733 131.01 41.5C131.01 40.5267 131.23 39.7 131.67 39.02C132.11 38.3267 132.683 37.8 133.39 37.44C134.11 37.08 134.863 36.9 135.65 36.9C136.436 36.9 137.116 37.0067 137.69 37.22C138.276 37.4333 138.776 37.7133 139.19 38.06L137.83 39.86C137.643 39.7133 137.383 39.5667 137.05 39.42C136.73 39.26 136.35 39.18 135.91 39.18C135.523 39.18 135.17 39.28 134.85 39.48C134.53 39.68 134.276 39.9533 134.09 40.3C133.903 40.6467 133.81 41.0467 133.81 41.5C133.81 41.9267 133.91 42.32 134.11 42.68C134.31 43.04 134.583 43.3267 134.93 43.54C135.29 43.74 135.71 43.84 136.19 43.84C136.496 43.84 136.776 43.8 137.03 43.72C137.296 43.6267 137.523 43.5 137.71 43.34L139.11 45.1Z" fill="black"/>
<path d="M142.08 33.3H144.88V37.1H147V39.28H144.88V45.88H142.08V39.28H140.72V37.1H142.08V33.3Z" fill="black"/>
<defs>
<clipPath id="clip0_2_21162">
<rect width="118" height="28" fill="white"/>
</clipPath>
</defs>
</svg>
